<svg viewBox="0 0 1920 1920" version="1.1" xmlns="http://www.w3.org/2000/svg">
    <g stroke="none" stroke-width="1" fill-rule="evenodd">
        <path d="M1360 1440H560v-106.667c0-115.2 85-208 191-213.333 54 65.067 128 106.667 209 106.667s155-41.6 209-106.667c107 5.333 191 98.133 191 213.333V1440zM960 720c88 0 160 71.68 160 160s-72 160-160 160-160-71.68-160-160 72-160 160-160zm640-240H320c-88.32 0-160 71.6-160 160v960c0 88.32 71.68 160 160 160h1280c88.32 0 160-71.68 160-160V640c0-88.4-71.68-160-160-160zM800 400h400V160H800zM320 400h400V160H320z"/>
    </g>
</svg>
