<svg viewBox="0 0 1920 1920" version="1.1" xmlns="http://www.w3.org/2000/svg">
    <g stroke="none" stroke-width="1" fill-rule="evenodd">
        <path d="M987.206 1104.293c-35.865 0-62.963-13.084-81.294-39.32-18.331-26.168-27.563-61.035-27.563-104.671 0-95.972 36.33-143.926 108.857-143.926 14.479 0 30.153 4.849 47.156 14.546 16.87 9.697 31.083 26.66 42.772 50.836l108.79-56.76h-.066c-43.503-78-115.498-117.784-216.12-117.718-68.608 0-125.461 22.802-170.358 68.43-45.031 45.495-67.48 107.073-67.48 184.647 0 79.502 22.25 141.54 66.683 186.039 44.499 44.631 102.946 66.95 175.472 66.95 45.496 0 87.073-11.355 124.797-34.204 37.725-22.714 67.214-53.995 88.467-93.779l-100.09-50.875c-19.327 46.558-52.734 69.804-100.023 69.804"/>
        <path d="M960.5 1598C608.418 1598 323 1312.582 323 960.5S608.418 323 960.5 323 1598 608.418 1598 960.5 1312.582 1598 960.5 1598M960 163c-440.171 0-797 356.829-797 797s356.829 797 797 797 797-356.829 797-797-356.829-797-797-797"/>
    </g>
</svg>
