<svg viewBox="0 0 1920 1920" version="1.1" xmlns="http://www.w3.org/2000/svg">
    <g stroke="none" stroke-width="1" fill-rule="evenodd">
        <path d="M960 1597.6c-352.141 0-637.6-285.459-637.6-637.6S607.859 322.4 960 322.4s637.6 285.459 637.6 637.6-285.459 637.6-637.6 637.6M960 163c-440.183 0-797 356.817-797 797s356.817 797 797 797 797-356.817 797-797-356.817-797-797-797"/>
        <path d="M748.981 1108.747c-37.459 0-65.779-13.655-85.013-41.02-19.208-27.336-28.852-63.732-28.852-109.268 0-100.21 37.991-150.287 113.865-150.287 15.196 0 31.641 5.1 49.361 15.196 17.667 10.095 32.597 27.842 44.765 53.133l113.891-59.244.053-.026c-45.562-82.012-120.931-122.977-226.215-122.924-71.863 0-131.372 23.803-178.395 71.358-47.05 47.58-70.588 111.819-70.588 192.794 0 82.942 23.273 147.764 69.817 194.256 46.545 46.624 107.808 69.87 183.709 69.87 47.581 0 91.123-11.875 130.549-35.68 39.478-23.803 70.348-56.4 92.611-97.924l-104.752-53.133c-20.271 48.564-55.18 72.899-104.806 72.899M1344.021 1035.848c-20.244 48.564-55.152 72.899-104.726 72.899-37.459 0-65.805-13.655-85.013-41.02-19.208-27.336-28.851-63.732-28.851-109.268 0-100.21 37.99-150.287 113.891-150.287 16.126 0 33.075 5.1 50.875 15.196 17.667 10.095 32.651 27.842 44.765 53.133l112.377-59.243c-44.499-82.012-119.444-122.978-224.701-122.925-71.889 0-131.319 23.804-178.368 71.332-47.103 47.58-70.615 111.819-70.615 192.794 0 82.942 23.007 147.764 69.153 194.256 45.961 46.624 107.436 69.87 184.373 69.87a245.01 245.01 0 0 0 129.061-35.68c39.398-23.803 70.8-56.4 94.046-97.924l-106.267-53.133z"/>
    </g>
</svg>
