<svg viewBox="0 0 1920 1920" version="1.1" xmlns="http://www.w3.org/2000/svg">
    <g stroke="none" stroke-width="1" fill-rule="evenodd">
        <path d="M920 811.429c-52.267 0-93 40.229-93 91.429V994h186v-91.142c0-51.2-40.733-91.43-93-91.43"/>
        <path d="M1200 1283.195c0 42.42-34.385 76.805-76.801 76.805H716.801c-42.417 0-76.801-34.387-76.801-76.805v-212.104c0-42.42 34.388-77.091 76.808-77.091H733v-91.143C733 802.286 817.333 720 920 720s187 82.286 187 182.857V994h16.191c42.42 0 76.809 34.672 76.809 77.091v212.104zM1680 480h-624l-55.76-139.44C975.92 279.84 917.12 240 851.68 240H320c-88.4 0-160 71.6-160 160v1200c0 44.16 35.84 80 80 80h1360c88.4 0 160-71.6 160-160V560c0-44.16-35.84-80-80-80z"/>
    </g>
</svg>
