<svg viewBox="0 0 1920 1920" version="1.1" xmlns="http://www.w3.org/2000/svg">
    <g stroke="none" stroke-width="1" fill-rule="evenodd">
        <path d="M960 1597.6c-352.141 0-637.6-285.459-637.6-637.6S607.859 322.4 960 322.4s637.6 285.459 637.6 637.6-285.459 637.6-637.6 637.6M960 163c-440.183 0-797 356.817-797 797s356.817 797 797 797 797-356.817 797-797-356.817-797-797-797"/>
        <path d="M1208.1 1072.931c-11.574-10.574-17.171-27.295-17.171-49.764V664.991h-134v318.524c-13 26.435-28.852 46.921-49.287 61.46-20.435 14.54-45.214 21.81-74.148 21.81-31.104 0-54.697-9.253-70.61-27.758-15.914-18.504-23.955-43.12-23.955-73.85V664.99h-134v623.346c0 16.521 5.19 28.962 15.499 37.718 10.307 8.756 24.9 12.936 43.708 12.936h66.793v-118.558c0-12.887-.665-26.847-1.931-41.882-1.266-15.034-3.723-29.656-7.34-43.864 13.02 10.243 28.022 18.008 45.02 23.295 16.999 5.288 36.345 7.93 58.045 7.93 31.828 0 60.217-7.517 85.173-22.552 24.955-15.034 47.196-36.429 66.726-64.184 4.702 16.851 11.574 31.555 20.616 44.111 9.04 12.556 19.439 22.882 31.194 30.978 11.754 8.095 24.683 14.125 38.789 18.091 14.106 3.966 28.753 5.947 43.943 5.947 13.02 0 24.685-1.156 34.99-3.469 10.31-2.313 19.17-5.37 26.584-9.169 7.415-3.8 12.86-8.179 16.656-13.135 3.798-4.956 5.535-10.078 5.535-15.365v-48.174h-39.28c-20.252 0-35.976-5.486-47.55-16.06"/>
    </g>
</svg>
