<svg viewBox="0 0 1920 1920" version="1.1" xmlns="http://www.w3.org/2000/svg">
    <g stroke="none" stroke-width="1" fill-rule="evenodd">
        <path d="M960 1597.6c-352.141 0-637.6-285.459-637.6-637.6S607.859 322.4 960 322.4s637.6 285.459 637.6 637.6-285.459 637.6-637.6 637.6M960 163c-440.183 0-797 356.817-797 797s356.817 797 797 797 797-356.817 797-797-356.817-797-797-797"/>
        <path d="M1159.319 717.488c-10.441-9.83-22.332-14.49-35.615-14.49H796.35c-13.603-1-26.787 4.847-36.377 14.49-9.936 9.803-15.017 21.45-15.017 35.478v321.032h91v381h248v-381h91V752.966c0-14.001-5.276-25.648-15.637-35.478M960.002 660.514c73.988 0 110.994-36.45 110.994-109.348 0-73.803-36.952-110.677-110.993-110.677-74.042 0-111.048 36.927-111.048 110.65v.053c0 72.872 37.06 109.322 111.047 109.322"/>
    </g>
</svg>
